HIERARCHY
ROOT Hips
{
	OFFSET 0.00000 0.00000 0.00000
	CHANNELS 6 Xposition Yposition Zposition Zrotation Yrotation Xrotation 
	JOINT LHipJoint
	{
		OFFSET 0 0 0
		CHANNELS 3 Zrotation Yrotation Xrotation
		JOINT LeftHip
		{
			OFFSET 1.40252 -1.71424 0.59123
			CHANNELS 3 Zrotation Yrotation Xrotation
			JOINT LeftKnee
			{
				OFFSET 2.50071 -6.87065 0.00000
				CHANNELS 3 Zrotation Yrotation Xrotation
				JOINT LeftAnkle
				{
					OFFSET 2.50834 -6.89162 0.00000
					CHANNELS 3 Zrotation Yrotation Xrotation
					JOINT LeftToe
					{
						OFFSET 0.21528 -0.59149 1.64448
						CHANNELS 3 Zrotation Yrotation Xrotation
						End Site
						{
							OFFSET 0.00000 -0.00000 0.87921
						}
					}
				}
			}
		}
	}
	JOINT RHipJoint
	{
		OFFSET 0 0 0
		CHANNELS 3 Zrotation Yrotation Xrotation
		JOINT RightHip
		{
			OFFSET -1.53651 -1.71424 0.59123
			CHANNELS 3 Zrotation Yrotation Xrotation
			JOINT RightKnee
			{
				OFFSET -2.45783 -6.75285 0.00000
				CHANNELS 3 Zrotation Yrotation Xrotation
				JOINT RightAnkle
				{
					OFFSET -2.51921 -6.92147 0.00000
					CHANNELS 3 Zrotation Yrotation Xrotation
					JOINT RightToe
					{
						OFFSET -0.21777 -0.59831 1.59676
						CHANNELS 3 Zrotation Yrotation Xrotation
						End Site
						{
							OFFSET -0.00000 -0.00000 0.85779
						}
					}
				}
			}
		}
	}
	JOINT lowerback
	{
		OFFSET 0 0 0
		CHANNELS 3 Zrotation Yrotation Xrotation
		JOINT Chest
		{
			OFFSET 0.02212 2.07622 0.03776
			CHANNELS 3 Zrotation Yrotation Xrotation
			JOINT Chest2
			{
				OFFSET -0.00949 2.08009 -0.00123
				CHANNELS 3 Zrotation Yrotation Xrotation
				JOINT lowerneck
				{
					OFFSET 0 0 0
					CHANNELS 3 Zrotation Yrotation Xrotation
					JOINT Neck
					{
						OFFSET 0.00288 1.67184 0.11155
						CHANNELS 3 Zrotation Yrotation Xrotation
						JOINT Head
						{
							OFFSET -0.02412 1.66997 -0.22040
							CHANNELS 3 Zrotation Yrotation Xrotation
							End Site
							{
								OFFSET -0.01026 1.69043 -0.08683
							}
						}
					}
				}
				JOINT LeftCollar
				{
					OFFSET 0 0 0
					CHANNELS 3 Zrotation Yrotation Xrotation
					JOINT LeftShoulder
					{
						OFFSET 3.97941 0.74048 0.81462
CHANNELS 3 Zrotation Xrotation Yrotation
						JOINT LeftElbow
						{
OFFSET 0 -5.018340 -0.000000
CHANNELS 3 Zrotation Xrotation Yrotation
							JOINT LeftWrist
							{
OFFSET 0 -3.486900 0.000000
CHANNELS 3 Zrotation Xrotation Yrotation
								JOINT lhand
								{
									OFFSET 0 0 0
CHANNELS 3 Zrotation Xrotation Yrotation
									JOINT LFingers
									{
OFFSET 0 -0.767990 0.000000
CHANNELS 3 Zrotation Xrotation Yrotation
										End Site
										{
OFFSET 0 -0.619170 0.000000
										}
									}
								}
								JOINT LThumb
								{
OFFSET 0 0.000000 0.000000
CHANNELS 3 Zrotation Xrotation Yrotation
									End Site
									{
OFFSET 0 -0.628630 0.628630
									}
								}
							}
						}
					}
				}
				JOINT RightCollar
				{
					OFFSET 0 0 0
					CHANNELS 3 Zrotation Yrotation Xrotation
					JOINT RightShoulder
					{
						OFFSET -3.88702 1.02123 0.44091
CHANNELS 3 Zrotation Xrotation Yrotation
						JOINT RightElbow
						{
OFFSET 0 -4.701640 0.000000
CHANNELS 3 Zrotation Xrotation Yrotation
							JOINT RightWrist
							{
OFFSET 0 -3.499110 0.000000
CHANNELS 3 Zrotation Xrotation Yrotation
								JOINT rhand
								{
									OFFSET 0 0 0
CHANNELS 3 Zrotation Xrotation Yrotation
									JOINT RFingers
									{
OFFSET 0 -0.739330 0.000000
CHANNELS 3 Zrotation Xrotation Yrotation
										End Site
										{
OFFSET 0 -0.596070 0.000000
										}
									}
								}
								JOINT RThumb
								{
OFFSET 0 0.000000 0.000000
CHANNELS 3 Zrotation Xrotation Yrotation
									End Site
									{
OFFSET 0 -0.605170 0.605170
									}
								}
							}
						}
					}
				}
			}
		}
	}
}
MOTION
Frames: 8
Frame Time: 0.008333333333333333
-13.481900 17.468300 -0.403000 89.805700 88.021900 97.802500 0.000000 0.000000 0.000000 -17.536900 -8.623800 -20.600600 2.647400 10.101200 29.305100 0.885700 3.866700 -19.580800 0.178700 2.722900 7.508200 0.000000 0.000000 0.000000 22.516500 8.007800 -6.235100 -0.680900 -5.275800 14.697000 -1.004300 -6.791200 -22.548600 -0.016500 -0.830300 2.281900 0.848200 0.090900 -4.242600 0.182600 0.067700 2.377400 -0.281000 0.061500 4.838300 3.005400 -2.863600 -6.839000 -2.251600 -3.585400 19.545300 -1.495400 -1.554800 6.988100 -0.000000 -0.000000 0.000000 -7.088800 -0.785700 -31.349600 19.128700 -29.578300 5.094200 22.307500 3.394600 -43.372300 0.000000 0.000000 0.000000 -7.125000 0.000000 0.000000 -27.170400 74.110000 19.034700 -0.000000 -0.000000 0.000000 0.504100 12.401700 23.726300 -24.781000 -35.979300 -8.160900 -28.611300 11.078000 -1.013600 0.000000 0.000000 0.000000 7.125000 0.000000 -0.000000 -1.591100 28.823700 -0.627100
-13.298151 17.435813 -0.353194 84.018223 88.202152 91.179960 0.000000 0.000000 0.000000 -16.807882 -10.424067 -22.640593 4.020458 12.180998 36.384679 0.736329 3.398525 -17.789567 1.057432 6.513051 18.289376 0.000000 0.000000 0.000000 23.162940 7.656165 -4.999494 -0.717366 -5.412392 15.088589 -1.134051 -6.223572 -23.265932 -0.057304 -1.535112 4.222761 0.489316 0.058200 -3.766879 0.273104 0.046792 2.324803 0.011451 0.037500 4.512234 2.861773 -2.845620 -6.451660 -2.200688 -3.524102 19.651561 -1.444521 -1.524086 6.959226 0.000000 0.000000 0.000000 -7.042400 -0.235303 -31.024344 19.110689 -29.555943 5.085326 21.887587 3.338858 -42.818618 0.000000 0.000000 0.000000 -7.125000 0.000000 0.000000 -26.506675 73.500332 18.215151 0.000000 0.000000 0.000000 0.373914 11.996517 25.060372 -25.771540 -36.981720 -8.750052 -29.060225 10.196280 -0.411853 0.000000 0.000000 0.000000 7.125000 0.000000 0.000000 -1.957248 29.506180 -0.739256
-13.101254 17.383601 -0.315690 63.845676 88.368000 70.592882 0.000000 0.000000 0.000000 -15.854968 -11.912393 -25.579943 5.500347 13.925212 42.940402 0.750371 1.992715 -17.201573 2.201435 9.273575 26.654971 0.000000 0.000000 0.000000 23.900677 7.934667 -4.093403 -0.782084 -5.645756 15.760017 -1.297327 -5.711098 -24.265478 -0.143243 -2.439013 6.720619 0.200657 0.151565 -3.544159 0.361681 0.185752 2.321095 0.274553 0.096353 4.381005 2.810212 -2.859307 -6.520281 -2.245043 -3.542077 19.464712 -1.450381 -1.547125 6.910636 0.000000 0.000000 0.000000 -6.851605 0.181553 -30.645012 19.434997 -29.955578 5.246275 21.982135 3.198012 -42.975780 0.000000 0.000000 0.000000 -7.125000 0.000000 0.000000 -26.718891 73.664795 18.458484 0.000000 0.000000 0.000000 0.346075 11.050785 27.888079 -27.239318 -38.406292 -9.647401 -30.983526 8.747069 -0.059894 0.000000 0.000000 0.000000 7.125000 0.000000 0.000000 -3.479557 29.900894 -1.284089
-12.851004 17.349623 -0.291382 46.252444 87.713649 52.694900 0.000000 0.000000 0.000000 -16.152576 -11.790940 -27.840013 5.945691 14.374887 44.762183 0.676077 3.982473 -17.483271 0.027010 1.019882 2.803827 0.000000 0.000000 0.000000 23.852351 7.311978 -3.283815 -0.834114 -5.826323 16.281298 -1.408738 -5.052780 -24.746047 -0.103004 -2.069507 5.697862 -0.639832 0.291562 -4.205556 0.296469 0.429423 2.762063 0.703618 0.188960 5.211406 2.765048 -2.800674 -6.623476 -2.246881 -3.496386 18.699660 -1.431810 -1.550924 6.684992 0.000000 0.000000 0.000000 -6.841478 0.352390 -28.736406 19.630521 -30.194598 5.344266 22.160887 2.965316 -42.542423 0.000000 0.000000 0.000000 -7.125000 0.000000 0.000000 -25.589809 73.368202 17.492156 0.000000 0.000000 0.000000 0.957875 8.309809 31.098143 -28.451416 -39.527980 -10.409963 -33.412899 8.060527 0.150405 0.000000 0.000000 0.000000 7.125000 0.000000 0.000000 -5.403118 30.137806 -1.966643
-12.587535 17.342985 -0.279429 19.073861 87.414950 25.926453 0.000000 0.000000 0.000000 -14.277978 -12.226831 -29.801366 5.088750 13.481466 41.201495 0.576950 4.721547 -16.847392 0.010319 0.638664 1.755074 0.000000 0.000000 0.000000 25.020829 8.282892 -2.817428 -0.916041 -6.098327 17.069955 -1.513768 -4.951498 -25.482826 -0.190036 -2.802255 7.728956 0.071140 0.631006 -4.337515 0.143162 0.840692 2.539909 0.181399 0.420165 5.059674 3.006260 -2.804604 -6.710811 -2.316340 -3.554122 18.091222 -1.491340 -1.585438 6.498386 0.000000 0.000000 0.000000 -5.828610 1.427451 -27.688611 19.733607 -30.319999 5.396227 22.144231 2.764024 -42.370258 0.000000 0.000000 0.000000 -7.125000 0.000000 0.000000 -25.263442 73.217339 17.181076 0.000000 0.000000 0.000000 2.889290 6.350962 34.072374 -30.570181 -41.375855 -11.785136 -33.970220 6.382279 -0.383832 0.000000 0.000000 0.000000 7.125000 0.000000 0.000000 -5.803328 29.493630 -2.204472
-12.268346 17.313516 -0.287871 12.901646 86.350183 20.098216 0.000000 0.000000 0.000000 -13.148459 -12.040248 -30.373888 3.484910 11.434244 33.767443 0.438897 4.822939 -15.209302 0.045654 1.364267 3.751984 0.000000 0.000000 0.000000 25.019374 8.563671 -2.489772 -1.025256 -6.440458 18.068176 -1.678149 -4.374608 -26.371327 -0.138434 -2.398195 6.607490 0.113560 0.976145 -4.424131 -0.274134 1.316679 2.426568 -0.232481 0.664410 5.001106 3.221969 -2.601207 -6.794486 -2.245398 -3.358784 17.185622 -1.479877 -1.495751 6.228848 0.000000 0.000000 0.000000 -4.343577 2.539791 -27.035000 19.899626 -30.521151 5.480308 22.229864 2.560354 -42.344428 0.000000 0.000000 0.000000 -7.125000 0.000000 0.000000 -25.102731 73.226256 17.072835 0.000000 0.000000 0.000000 4.771698 4.423315 38.196005 -33.422281 -43.650140 -13.713344 -34.323267 4.760485 -1.679508 0.000000 0.000000 0.000000 7.125000 0.000000 0.000000 -5.976159 27.929647 -2.493180
-11.889136 17.271838 -0.320823 4.753694 85.401412 12.863695 0.000000 0.000000 0.000000 -11.231297 -11.701299 -30.407713 1.852770 8.541787 24.378911 0.127817 6.118810 -11.565899 0.267276 3.308130 9.139279 0.000000 0.000000 0.000000 25.252442 8.978408 -2.631430 -1.160311 -6.838251 19.237020 -1.849988 -3.645597 -27.212360 -0.108841 -2.127195 5.857285 0.447253 1.287927 -5.003743 -0.494113 1.715526 2.074016 -0.603488 0.874202 4.982269 3.391168 -2.450648 -6.731302 -2.483784 -3.157028 16.560807 -1.559946 -1.420667 6.018813 0.000000 0.000000 0.000000 -2.983823 3.913505 -25.922085 20.193333 -30.874518 5.630258 21.683431 2.002439 -42.050617 0.000000 0.000000 0.000000 -7.125000 0.000000 0.000000 -25.219542 72.783420 16.918212 0.000000 0.000000 0.000000 6.010746 2.431154 43.413530 -36.154590 -45.617622 -15.633425 -34.562929 4.682397 -1.316739 0.000000 0.000000 0.000000 7.125000 0.000000 0.000000 -6.191052 28.360626 -2.520574
-11.441004 17.235221 -0.384696 -7.861499 85.730897 0.775860 0.000000 0.000000 0.000000 -9.278867 -11.223043 -29.744026 0.843618 5.851166 16.355161 0.015408 7.003810 -10.341725 0.539852 4.707747 13.076865 0.000000 0.000000 0.000000 26.336544 9.107035 -1.687990 -1.232907 -7.041526 19.838553 -1.960399 -4.098132 -28.171934 -0.087328 -1.902828 5.237146 1.550837 1.208262 -5.172689 -0.524245 1.529021 1.691056 -1.272017 0.812234 4.707268 3.024670 -2.273623 -6.854282 -2.343502 -2.887687 16.814012 -1.441999 -1.298214 6.136518 0.000000 0.000000 0.000000 -1.739902 5.596703 -24.457877 20.385331 -31.103789 5.729032 22.345265 2.061960 -42.328811 0.000000 0.000000 0.000000 -7.125000 0.000000 0.000000 -24.924622 73.254213 16.962706 0.000000 0.000000 0.000000 6.975343 1.070111 48.231396 -38.863713 -47.380775 -17.598824 -34.578835 4.525350 -1.731611 0.000000 0.000000 0.000000 7.125000 0.000000 0.000000 -6.168470 27.859483 -2.584636
